<?xml version="1.0" ?><!DOCTYPE svg  PUBLIC '-//W3C//DTD SVG 1.1//EN'  'http://www.w3.org/Graphics/SVG/1.1/DTD/svg11.dtd'><svg height="100%" style="fill-rule:evenodd;clip-rule:evenodd;stroke-linejoin:round;stroke-miterlimit:1.41421;" version="1.1" viewBox="0 0 49 49" width="100%" xml:space="preserve" xmlns="http://www.w3.org/2000/svg" xmlns:serif="http://www.serif.com/" xmlns:xlink="http://www.w3.org/1999/xlink"><path d="M8.468,33.362c-1.66,0 -3,1.34 -3,3c0,1.66 1.34,3 3,3c1.66,0 3,-1.34 3,-3c0,-1.66 -1.34,-3 -3,-3Zm34,3c0,0.531 -0.211,1.039 -0.586,1.414c-0.375,0.376 -0.884,0.586 -1.414,0.586c-5.154,0 -18.846,0 -24,0c-0.53,0 -1.039,-0.21 -1.414,-0.586c-0.375,-0.375 -0.586,-0.883 -0.586,-1.414c0,-0.53 0.211,-1.039 0.586,-1.414c0.375,-0.375 0.884,-0.586 1.414,-0.586c5.154,0 18.846,0 24,0c0.53,0 1.039,0.211 1.414,0.586c0.375,0.375 0.586,0.884 0.586,1.414c0,0 0,0 0,0Zm-34,-15c-1.66,0 -3,1.34 -3,3c0,1.66 1.34,3 3,3c1.66,0 3,-1.34 3,-3c0,-1.66 -1.34,-3 -3,-3Zm34,3c0,0.531 -0.211,1.039 -0.586,1.414c-0.375,0.376 -0.884,0.586 -1.414,0.586c-5.154,0 -18.846,0 -24,0c-0.53,0 -1.039,-0.21 -1.414,-0.586c-0.375,-0.375 -0.586,-0.883 -0.586,-1.414c0,-0.53 0.211,-1.039 0.586,-1.414c0.375,-0.375 0.884,-0.586 1.414,-0.586c5.154,0 18.846,0 24,0c0.53,0 1.039,0.211 1.414,0.586c0.375,0.375 0.586,0.884 0.586,1.414c0,0 0,0 0,0Zm-34,-15c-1.66,0 -3,1.34 -3,3c0,1.66 1.34,3 3,3c1.66,0 3,-1.34 3,-3c0,-1.66 -1.34,-3 -3,-3Zm34,3c0,0.531 -0.211,1.039 -0.586,1.414c-0.375,0.376 -0.884,0.586 -1.414,0.586c-5.154,0 -18.846,0 -24,0c-0.53,0 -1.039,-0.21 -1.414,-0.586c-0.375,-0.375 -0.586,-0.883 -0.586,-1.414c0,-0.53 0.211,-1.039 0.586,-1.414c0.375,-0.375 0.884,-0.586 1.414,-0.586c5.154,0 18.846,0 24,0c0.53,0 1.039,0.211 1.414,0.586c0.375,0.375 0.586,0.884 0.586,1.414c0,0 0,0 0,0Z" style="fill:#f60056;"/><rect height="48" style="fill:none;" width="48" x="0.468" y="0.362"/></svg>